<svg width="34" height="34" viewBox="0 0 34 34" fill="none" xmlns="http://www.w3.org/2000/svg">
<rect width="34" height="34" rx="3" fill="#FF000D"/>
<path d="M12.8237 24H10.978V12.2388C10.5337 12.6626 9.94922 13.0864 9.22461 13.5103C8.50684 13.9341 7.86084 14.252 7.28662 14.4639V12.6797C8.31885 12.1943 9.22119 11.6064 9.99365 10.916C10.7661 10.2256 11.313 9.55566 11.6343 8.90625H12.8237V24ZM20.4014 15.8481C19.6357 15.5679 19.0684 15.168 18.6992 14.6484C18.3301 14.1289 18.1455 13.5068 18.1455 12.7822C18.1455 11.6885 18.5386 10.769 19.3247 10.0239C20.1108 9.27881 21.1567 8.90625 22.4624 8.90625C23.7749 8.90625 24.8311 9.28906 25.6309 10.0547C26.4307 10.8135 26.8306 11.7397 26.8306 12.8335C26.8306 13.5308 26.646 14.1392 26.2769 14.6587C25.9146 15.1714 25.3608 15.5679 24.6157 15.8481C25.5386 16.1489 26.2393 16.6343 26.7178 17.3042C27.2031 17.9741 27.4458 18.7739 27.4458 19.7036C27.4458 20.9888 26.9912 22.0688 26.082 22.9438C25.1729 23.8188 23.9766 24.2563 22.4932 24.2563C21.0098 24.2563 19.8135 23.8188 18.9043 22.9438C17.9951 22.062 17.5405 20.9648 17.5405 19.6523C17.5405 18.6748 17.7866 17.8579 18.2788 17.2017C18.7778 16.5386 19.4854 16.0874 20.4014 15.8481ZM20.0322 12.7207C20.0322 13.4316 20.2612 14.0127 20.7192 14.4639C21.1772 14.915 21.772 15.1406 22.5034 15.1406C23.2144 15.1406 23.7954 14.9185 24.2466 14.4741C24.7046 14.0229 24.9336 13.4727 24.9336 12.8232C24.9336 12.1465 24.6978 11.5791 24.2261 11.1211C23.7612 10.6562 23.1802 10.4238 22.4829 10.4238C21.7788 10.4238 21.1943 10.6494 20.7295 11.1006C20.2646 11.5518 20.0322 12.0918 20.0322 12.7207ZM19.4375 19.6626C19.4375 20.189 19.5605 20.6982 19.8066 21.1904C20.0596 21.6826 20.4321 22.0654 20.9243 22.3389C21.4165 22.6055 21.9463 22.7388 22.5137 22.7388C23.3955 22.7388 24.1235 22.4551 24.6978 21.8877C25.272 21.3203 25.5591 20.5991 25.5591 19.7241C25.5591 18.8354 25.2617 18.1006 24.667 17.5195C24.0791 16.9385 23.3408 16.6479 22.4521 16.6479C21.584 16.6479 20.8628 16.9351 20.2886 17.5093C19.7212 18.0835 19.4375 18.8013 19.4375 19.6626Z" fill="white"/>
</svg>
