<svg width="30" height="42" viewBox="0 0 30 42" fill="none" xmlns="http://www.w3.org/2000/svg">
<path d="M25.85 13.7C25.1833 13.2333 24.6167 12.7667 24.15 12.3C23.7167 11.8 23.35 11.2667 23.05 10.7C22.75 10.1333 22.5 9.51667 22.3 8.85C22.1 8.18333 21.9333 7.45 21.8 6.65C21.3333 6.28333 20.5833 6.05 19.55 5.95C18.5167 5.85 17.4667 5.8 16.4 5.8C15.5333 5.8 14.7833 5.81666 14.15 5.85C13.5167 5.88333 12.9667 5.9 12.5 5.9C12.2 6.73333 12 8.16666 11.9 10.2C11.8 12.2 11.75 14.5 11.75 17.1C11.75 18.5 11.75 19.9333 11.75 21.4C11.7833 22.8667 11.8 24.3167 11.8 25.75C11.8333 27.1833 11.85 28.5833 11.85 29.95C11.8833 31.2833 11.9 32.5333 11.9 33.7C12.9 33.9333 13.7167 34.15 14.35 34.35C14.9833 34.5167 15.6 34.6667 16.2 34.8C16.8 34.9 17.4833 35 18.25 35.1C19.0167 35.1667 20.0333 35.2333 21.3 35.3C21.3667 35.0333 21.4 34.4667 21.4 33.6C21.4333 32.7 21.45 31.6667 21.45 30.5C21.45 29.2 21.4333 28.1167 21.4 27.25C21.4 26.3833 21.3667 25.5167 21.3 24.65C20.8667 24.65 20.5 24.6167 20.2 24.55C19.9333 24.45 19.6 24.35 19.2 24.25C18.8333 24.15 18.3333 24.05 17.7 23.95C17.1 23.85 16.2833 23.7667 15.25 23.7C15.3833 23.4667 15.55 23.1667 15.75 22.8C15.95 22.4 16.15 21.9833 16.35 21.55C16.55 21.1167 16.7167 20.7167 16.85 20.35C17.0167 19.95 17.1333 19.6167 17.2 19.35C18.4667 19.6167 19.7 19.8167 20.9 19.95C22.1333 20.0833 23.3 20.15 24.4 20.15C25.5333 20.15 26.5667 20.0833 27.5 19.95C28.4333 19.7833 29.2167 19.5167 29.85 19.15C29.75 19.4167 29.5667 19.8 29.3 20.3C29.0667 20.7667 28.8167 21.2833 28.55 21.85C28.2833 22.3833 28.05 22.9167 27.85 23.45C27.65 23.9833 27.55 24.45 27.55 24.85C27.65 26.25 27.7333 27.6 27.8 28.9C27.8667 30.2 27.9333 31.3833 28 32.45C28.1 33.4833 28.1833 34.35 28.25 35.05C28.3167 35.75 28.4 36.2 28.5 36.4C26.9333 36.7667 25.45 37.3333 24.05 38.1C22.65 38.9 21.0167 40.0833 19.15 41.65C17.6833 40.75 16.1167 39.9833 14.45 39.35C12.7833 38.7167 11.1333 38.1667 9.5 37.7C7.9 37.2 6.35 36.7667 4.85 36.4C3.38333 36.0333 2.1 35.6667 1 35.3C1.53333 35.1667 1.98333 34.85 2.35 34.35C2.75 33.8167 3.06667 33.1667 3.3 32.4C3.56667 31.6333 3.76667 30.7833 3.9 29.85C4.03333 28.8833 4.1 27.9167 4.1 26.95C4.1 25.45 3.93333 24.0167 3.6 22.65C3.3 21.2833 2.86667 20.25 2.3 19.55C2.83333 19.0167 3.26667 18.3167 3.6 17.45C3.96667 16.55 4.25 15.6 4.45 14.6C4.65 13.5667 4.78333 12.5167 4.85 11.45C4.91667 10.3833 4.95 9.38333 4.95 8.45C4.95 7.68333 4.93333 7.01667 4.9 6.45C4.86667 5.88333 4.83333 5.45 4.8 5.15C4.03333 4.88333 3.23333 4.33333 2.4 3.5C1.6 2.66666 1 1.76667 0.6 0.799999C2.73333 1.03333 4.75 1.2 6.65 1.3C8.58333 1.36666 10.4 1.4 12.1 1.4C15.8 1.4 18.8333 1.28333 21.2 1.05C23.5667 0.816665 25.4 0.699997 26.7 0.699997C26.9667 0.699997 27.2 0.716664 27.4 0.749997C27.6 0.749997 27.7833 0.766664 27.95 0.799999C27.8167 1.1 27.6667 1.61667 27.5 2.35C27.3667 3.05 27.2167 3.85 27.05 4.75C26.8833 5.61666 26.7333 6.55 26.6 7.55C26.4667 8.51666 26.3333 9.43333 26.2 10.3C26.1 11.1333 26.0167 11.8667 25.95 12.5C25.8833 13.1333 25.85 13.5333 25.85 13.7Z" fill="#E10914"/>
</svg>
