<svg width="35" height="35" viewBox="0 0 35 35" fill="none" xmlns="http://www.w3.org/2000/svg">
<path d="M29.25 9.83333H26.0708C26.2312 9.38125 26.3333 8.88542 26.3333 8.375C26.3333 5.95417 24.3792 4 21.9583 4C20.4271 4 19.1 4.7875 18.3125 5.96875L17.5833 6.94583L16.8542 5.95417C16.0667 4.7875 14.7396 4 13.2083 4C10.7875 4 8.83333 5.95417 8.83333 8.375C8.83333 8.88542 8.93542 9.38125 9.09583 9.83333H5.91667C4.29792 9.83333 3.01458 11.1312 3.01458 12.75L3 28.7917C3 30.4104 4.29792 31.7083 5.91667 31.7083H29.25C30.8687 31.7083 32.1667 30.4104 32.1667 28.7917V12.75C32.1667 11.1312 30.8687 9.83333 29.25 9.83333ZM21.9583 6.91667C22.7604 6.91667 23.4167 7.57292 23.4167 8.375C23.4167 9.17708 22.7604 9.83333 21.9583 9.83333C21.1562 9.83333 20.5 9.17708 20.5 8.375C20.5 7.57292 21.1562 6.91667 21.9583 6.91667ZM13.2083 6.91667C14.0104 6.91667 14.6667 7.57292 14.6667 8.375C14.6667 9.17708 14.0104 9.83333 13.2083 9.83333C12.4062 9.83333 11.75 9.17708 11.75 8.375C11.75 7.57292 12.4062 6.91667 13.2083 6.91667ZM29.25 28.7917H5.91667V25.875H29.25V28.7917ZM29.25 21.5H5.91667V12.75H13.325L10.2917 16.8771L12.6542 18.5833L17.5833 11.875L22.5125 18.5833L24.875 16.8771L21.8417 12.75H29.25V21.5Z" fill="white"/>
</svg>
