<svg width="708" height="150" viewBox="0 0 708 150" fill="none" xmlns="http://www.w3.org/2000/svg">
<path d="M76.55 45.1C74.55 43.7 72.85 42.3 71.45 40.9C70.15 39.4 69.05 37.8 68.15 36.1C67.25 34.4 66.5 32.55 65.9 30.55C65.3 28.55 64.8 26.35 64.4 23.95C63 22.85 60.75 22.15 57.65 21.85C54.55 21.55 51.4 21.4 48.2 21.4C45.6 21.4 43.35 21.45 41.45 21.55C39.55 21.65 37.9 21.7 36.5 21.7C35.6 24.2 35 28.5 34.7 34.6C34.4 40.6 34.25 47.5 34.25 55.3C34.25 59.5 34.25 63.8 34.25 68.2C34.35 72.6 34.4 76.95 34.4 81.25C34.5 85.55 34.55 89.75 34.55 93.85C34.65 97.85 34.7 101.6 34.7 105.1C37.7 105.8 40.15 106.45 42.05 107.05C43.95 107.55 45.8 108 47.6 108.4C49.4 108.7 51.45 109 53.75 109.3C56.05 109.5 59.1 109.7 62.9 109.9C63.1 109.1 63.2 107.4 63.2 104.8C63.3 102.1 63.35 99 63.35 95.5C63.35 91.6 63.3 88.35 63.2 85.75C63.2 83.15 63.1 80.55 62.9 77.95C61.6 77.95 60.5 77.85 59.6 77.65C58.8 77.35 57.8 77.05 56.6 76.75C55.5 76.45 54 76.15 52.1 75.85C50.3 75.55 47.85 75.3 44.75 75.1C45.15 74.4 45.65 73.5 46.25 72.4C46.85 71.2 47.45 69.95 48.05 68.65C48.65 67.35 49.15 66.15 49.55 65.05C50.05 63.85 50.4 62.85 50.6 62.05C54.4 62.85 58.1 63.45 61.7 63.85C65.4 64.25 68.9 64.45 72.2 64.45C75.6 64.45 78.7 64.25 81.5 63.85C84.3 63.35 86.65 62.55 88.55 61.45C88.25 62.25 87.7 63.4 86.9 64.9C86.2 66.3 85.45 67.85 84.65 69.55C83.85 71.15 83.15 72.75 82.55 74.35C81.95 75.95 81.65 77.35 81.65 78.55C81.95 82.75 82.2 86.8 82.4 90.7C82.6 94.6 82.8 98.15 83 101.35C83.3 104.45 83.55 107.05 83.75 109.15C83.95 111.25 84.2 112.6 84.5 113.2C79.8 114.3 75.35 116 71.15 118.3C66.95 120.7 62.05 124.25 56.45 128.95C52.05 126.25 47.35 123.95 42.35 122.05C37.35 120.15 32.4 118.5 27.5 117.1C22.7 115.6 18.05 114.3 13.55 113.2C9.15 112.1 5.3 111 2 109.9C3.6 109.5 4.95 108.55 6.05 107.05C7.25 105.45 8.2 103.5 8.9 101.2C9.7 98.9 10.3 96.35 10.7 93.55C11.1 90.65 11.3 87.75 11.3 84.85C11.3 80.35 10.8 76.05 9.8 71.95C8.9 67.85 7.6 64.75 5.9 62.65C7.5 61.05 8.8 58.95 9.8 56.35C10.9 53.65 11.75 50.8 12.35 47.8C12.95 44.7 13.35 41.55 13.55 38.35C13.75 35.15 13.85 32.15 13.85 29.35C13.85 27.05 13.8 25.05 13.7 23.35C13.6 21.65 13.5 20.35 13.4 19.45C11.1 18.65 8.7 17 6.2 14.5C3.8 12 2 9.3 0.8 6.4C7.2 7.09999 13.25 7.59999 18.95 7.9C24.75 8.09999 30.2 8.19999 35.3 8.19999C46.4 8.19999 55.5 7.84999 62.6 7.15C69.7 6.44999 75.2 6.09999 79.1 6.09999C79.9 6.09999 80.6 6.14999 81.2 6.24999C81.8 6.24999 82.35 6.29999 82.85 6.4C82.45 7.3 82 8.85 81.5 11.05C81.1 13.15 80.65 15.55 80.15 18.25C79.65 20.85 79.2 23.65 78.8 26.65C78.4 29.55 78 32.3 77.6 34.9C77.3 37.4 77.05 39.6 76.85 41.5C76.65 43.4 76.55 44.6 76.55 45.1ZM217.155 126.4C211.455 124.4 205.805 122.2 200.205 119.8C194.705 117.5 189.255 114.75 183.855 111.55C182.555 112.85 181.405 113.95 180.405 114.85C179.405 115.75 178.355 116.55 177.255 117.25C176.155 117.85 174.955 118.35 173.655 118.75C172.455 119.25 171.005 119.7 169.305 120.1C170.305 118.9 171.005 117.45 171.405 115.75C171.805 114.05 172.005 112.3 172.005 110.5C172.005 107.6 171.605 104.8 170.805 102.1C170.105 99.3 169.455 96.95 168.855 95.05L165.255 83.65C162.355 87.45 159.455 91.65 156.555 96.25C153.755 100.85 151.305 105.25 149.205 109.45C147.505 107.05 145.205 103.65 142.305 99.25C139.505 94.85 136.355 90.1 132.855 85L130.455 92.8C129.855 94.8 129.355 96.8 128.955 98.8C128.655 100.8 128.505 102.85 128.505 104.95C128.505 108.05 128.905 111.1 129.705 114.1C130.505 117.1 131.805 119.9 133.605 122.5C131.605 121.8 129.905 121.1 128.505 120.4C127.205 119.7 125.955 118.9 124.755 118C123.655 117.1 122.505 116.15 121.305 115.15C120.205 114.05 118.905 112.8 117.405 111.4C113.205 115.4 109.055 118.2 104.955 119.8C100.855 121.5 96.2551 122.4 91.1551 122.5C93.0551 122.2 95.0551 120.95 97.1551 118.75C99.2551 116.65 101.305 113.9 103.305 110.5C105.305 107 107.205 103.05 109.005 98.65C110.905 94.25 112.555 89.6 113.955 84.7L118.755 67.9C115.255 64.2 111.455 61.05 107.355 58.45C103.255 55.75 99.5551 54.4 96.2551 54.4C96.0551 54.4 95.8051 54.4 95.5051 54.4C95.2051 54.4 94.6051 54.45 93.7051 54.55L93.5551 54.1C97.8551 51.9 101.855 50.8 105.555 50.8C108.055 50.8 110.605 51.3 113.205 52.3C115.805 53.2 118.805 54.6 122.205 56.5L130.305 28.75C130.805 27.05 131.155 25.55 131.355 24.25C131.555 22.95 131.655 21.9 131.655 21.1C131.655 19 131.005 17.5 129.705 16.6C128.505 15.7 126.305 15.25 123.105 15.25C121.105 15.25 118.955 15.4 116.655 15.7C114.355 16 111.605 16.45 108.405 17.05C109.005 16.15 110.455 15.1 112.755 13.9C115.055 12.7 117.805 11.55 121.005 10.45C124.305 9.35 127.805 8.44999 131.505 7.75C135.305 6.95 138.955 6.55 142.455 6.55C145.055 6.55 147.555 6.84999 149.955 7.44999C152.355 8.05 154.155 9.1 155.355 10.6C157.155 10.5 159.105 10.25 161.205 9.85C163.305 9.45 165.305 9 167.205 8.5C169.105 7.89999 170.805 7.34999 172.305 6.84999C173.805 6.24999 174.805 5.79999 175.305 5.49999C173.905 7.5 172.855 9.9 172.155 12.7C171.555 15.4 171.255 18.35 171.255 21.55C171.255 25.65 171.705 29.95 172.605 34.45C173.505 38.85 174.555 42.95 175.755 46.75C177.055 50.55 178.405 53.8 179.805 56.5C181.205 59.2 182.405 60.85 183.405 61.45C183.405 67.35 184.405 73.6 186.405 80.2C188.505 86.8 191.155 93.1 194.355 99.1C197.655 105.1 201.305 110.5 205.305 115.3C209.405 120 213.405 123.55 217.305 125.95L217.155 126.4ZM149.055 84.85C150.755 82.55 152.655 80.1 154.755 77.5C156.955 74.8 158.955 72.15 160.755 69.55L149.205 32.05L137.355 70.75C139.355 72.85 141.355 75.2 143.355 77.8C145.455 80.4 147.355 82.75 149.055 84.85ZM295.321 8.65C292.921 10.75 290.271 12.75 287.371 14.65C284.571 16.55 281.621 18.2 278.521 19.6C275.421 21 272.221 22.15 268.921 23.05C265.621 23.85 262.321 24.25 259.021 24.25C257.921 24.25 256.871 24.25 255.871 24.25C254.871 24.25 253.871 24.2 252.871 24.1C252.571 27.1 252.421 30.15 252.421 33.25C252.421 41.75 252.471 50.3 252.571 58.9C252.671 67.5 252.721 76.65 252.721 86.35C252.721 91.55 253.621 96.6 255.421 101.5C257.321 106.3 260.021 109.8 263.521 112C259.321 114 255.771 116.1 252.871 118.3C250.071 120.6 247.571 123.85 245.371 128.05C243.671 123.95 241.021 120.65 237.421 118.15C233.821 115.75 229.771 113.7 225.271 112C227.271 109.1 228.771 105.35 229.771 100.75C230.771 96.05 231.271 91.5 231.271 87.1C231.271 82.8 231.271 79 231.271 75.7C231.271 72.3 231.271 69.15 231.271 66.25C231.371 63.35 231.421 60.55 231.421 57.85C231.521 55.15 231.571 52.25 231.571 49.15C231.671 46.05 231.721 42.65 231.721 38.95C231.721 35.25 231.721 30.9 231.721 25.9C231.721 25.1 231.721 24.35 231.721 23.65C231.721 22.95 231.621 22.2 231.421 21.4C224.821 20.2 218.521 19 212.521 17.8C206.621 16.5 201.221 15.85 196.321 15.85C194.121 15.85 191.771 16.1 189.271 16.6L189.121 16.15C194.521 14.55 198.921 12.6 202.321 10.3C205.821 7.99999 209.321 5.24999 212.821 2.04999C218.021 3.55 222.421 4.75 226.021 5.65C229.721 6.55 233.121 7.25 236.221 7.75C239.421 8.25 242.521 8.6 245.521 8.79999C248.621 8.89999 252.121 8.94999 256.021 8.94999C255.021 7.25 254.321 5.75 253.921 4.45C253.521 3.05 253.271 1.6 253.171 0.099998C256.471 2.19999 259.521 3.84999 262.321 5.05C265.221 6.14999 267.971 6.99999 270.571 7.59999C273.171 8.1 275.771 8.4 278.371 8.5C280.971 8.6 283.671 8.65 286.471 8.65C288.071 8.65 289.521 8.6 290.821 8.5C292.221 8.4 293.621 8.25 295.021 8.04999L295.321 8.65ZM325.784 101.05C327.584 102.05 329.234 102.95 330.734 103.75C332.234 104.55 333.734 105.3 335.234 106C336.834 106.6 338.534 107.15 340.334 107.65C342.134 108.15 344.184 108.6 346.484 109C350.684 106.9 354.034 105.55 356.534 104.95C359.034 104.25 360.684 103.65 361.484 103.15C361.684 93.45 361.834 83.3 361.934 72.7C362.134 62 362.234 51.85 362.234 42.25C362.234 39.75 362.234 37.3 362.234 34.9C362.234 32.4 362.134 30 361.934 27.7C360.134 26.7 358.484 25.8 356.984 25C355.484 24.2 353.934 23.5 352.334 22.9C350.834 22.2 349.184 21.6 347.384 21.1C345.684 20.6 343.684 20.15 341.384 19.75C337.184 21.85 333.784 23.3 331.184 24.1C328.684 24.9 327.034 25.55 326.234 26.05C326.134 28.55 326.034 31.6 325.934 35.2C325.834 38.7 325.734 42.5 325.634 46.6C325.634 50.7 325.634 55 325.634 59.5C325.634 64 325.634 68.4 325.634 72.7C325.634 77.2 325.634 82.05 325.634 87.25C325.734 92.45 325.784 97.05 325.784 101.05ZM298.784 63.7C300.084 62.3 301.234 60.55 302.234 58.45C303.334 56.25 304.284 53.9 305.084 51.4C305.884 48.8 306.484 46.1 306.884 43.3C307.384 40.5 307.634 37.75 307.634 35.05C307.634 30.45 306.934 26.1 305.534 22C304.134 17.9 301.834 14.9 298.634 13C301.734 12.8 305.084 12.4 308.684 11.8C312.384 11.2 316.084 10.45 319.784 9.54999C323.484 8.64999 327.034 7.69999 330.434 6.69999C333.834 5.6 336.834 4.45 339.434 3.24999C342.734 3.74999 346.634 4.59999 351.134 5.8C355.734 6.89999 360.284 8.04999 364.784 9.25C369.284 10.45 373.384 11.55 377.084 12.55C380.884 13.55 383.634 14.1 385.334 14.2C383.934 16.5 382.934 19.4 382.334 22.9C381.734 26.3 381.434 29.85 381.434 33.55C381.434 39.15 382.134 44.75 383.534 50.35C384.934 55.85 386.934 60.35 389.534 63.85C387.034 66.95 384.984 71.2 383.384 76.6C381.784 81.9 380.984 87.4 380.984 93.1C380.984 97.7 381.684 102 383.084 106C384.484 110 386.784 113 389.984 115C386.884 115.2 383.434 115.6 379.634 116.2C375.934 116.8 372.184 117.55 368.384 118.45C364.684 119.35 361.084 120.3 357.584 121.3C354.084 122.4 351.084 123.55 348.584 124.75C345.284 124.35 341.384 123.6 336.884 122.5C332.384 121.4 327.884 120.25 323.384 119.05C318.984 117.85 314.934 116.75 311.234 115.75C307.534 114.65 304.884 114 303.284 113.8C304.684 112.5 305.634 110.4 306.134 107.5C306.734 104.5 307.034 101.1 307.034 97.3C307.034 93.8 306.784 90.15 306.284 86.35C305.884 82.45 305.284 78.9 304.484 75.7C303.784 72.4 302.934 69.65 301.934 67.45C300.934 65.25 299.884 64 298.784 63.7ZM474.495 98.5C473.995 88.6 473.595 79.1 473.295 70C473.095 60.9 472.895 52.85 472.695 45.85C472.595 38.85 472.495 33.25 472.395 29.05C472.395 24.85 472.395 22.7 472.395 22.6C471.895 16.5 468.745 12.3 462.945 10C463.945 10.1 464.895 10.15 465.795 10.15C466.795 10.15 467.795 10.15 468.795 10.15C473.295 10.15 477.395 9.94999 481.095 9.54999C484.895 9.04999 488.345 8.54999 491.445 8.04999C494.545 7.54999 497.345 7.09999 499.845 6.69999C502.445 6.19999 504.845 5.94999 507.045 5.94999C508.245 5.94999 509.395 6.1 510.495 6.4C504.495 10.7 499.845 15.4 496.545 20.5C493.345 25.5 491.745 31.15 491.745 37.45C491.745 44.85 494.195 53.25 499.095 62.65C496.795 68.45 494.895 74.7 493.395 81.4C491.995 88.1 491.295 94.8 491.295 101.5C491.295 104.4 491.395 107.75 491.595 111.55C491.895 115.25 492.395 118.9 493.095 122.5C496.095 125.7 498.745 128.2 501.045 130C503.445 131.8 505.595 133.15 507.495 134.05C509.395 134.95 511.145 135.55 512.745 135.85C514.445 136.15 516.095 136.4 517.695 136.6L513.795 126.7C517.195 128.6 520.595 130.4 523.995 132.1C527.395 133.8 530.895 135.3 534.495 136.6C538.095 137.9 541.845 138.9 545.745 139.6C549.745 140.4 553.995 140.8 558.495 140.8C561.495 140.8 564.595 140.7 567.795 140.5C571.095 140.3 574.545 139.95 578.145 139.45C569.345 142.95 561.045 145.45 553.245 146.95C545.545 148.55 538.245 149.35 531.345 149.35C522.545 149.35 514.395 148.1 506.895 145.6C499.495 143.1 492.595 139.7 486.195 135.4C479.895 131.2 474.095 126.3 468.795 120.7C463.595 115.2 458.795 109.4 454.395 103.3C450.095 97.1 446.195 90.85 442.695 84.55C439.295 78.25 436.245 72.25 433.545 66.55V81.85C433.545 88.05 433.745 93.25 434.145 97.45C434.545 101.65 435.195 105.3 436.095 108.4C436.995 111.5 438.145 114.25 439.545 116.65C440.945 118.95 442.645 121.3 444.645 123.7C442.445 123.1 440.495 122.5 438.795 121.9C437.195 121.3 435.595 120.6 433.995 119.8C432.495 119 430.895 118 429.195 116.8C427.595 115.6 425.695 114.1 423.495 112.3C420.795 117.1 417.195 121.25 412.695 124.75C408.195 128.25 402.145 131.25 394.545 133.75C397.545 130.85 400.345 127.55 402.945 123.85C405.545 120.25 407.795 116.4 409.695 112.3C411.695 108.1 413.245 103.8 414.345 99.4C415.545 95 416.145 90.55 416.145 86.05C416.145 81.85 415.595 77.8 414.495 73.9C413.495 70 411.795 66.25 409.395 62.65C414.295 53.25 416.745 44.85 416.745 37.45C416.745 31.15 415.095 25.5 411.795 20.5C408.595 15.4 403.995 10.7 397.995 6.4C398.995 6.1 400.145 5.94999 401.445 5.94999C403.445 5.94999 405.695 6.19999 408.195 6.69999C410.795 7.09999 413.595 7.54999 416.595 8.04999C419.695 8.54999 422.995 9.04999 426.495 9.54999C430.095 9.94999 433.945 10.15 438.045 10.15C439.045 10.15 439.995 10.15 440.895 10.15C441.895 10.15 442.895 10.1 443.895 10C438.495 12.1 435.395 15.8 434.595 21.1C436.395 25.6 438.545 30.8 441.045 36.7C443.645 42.6 446.495 48.8 449.595 55.3C452.795 61.8 456.245 68.4 459.945 75.1C463.645 81.7 467.495 88 471.495 94L474.495 98.5ZM518.232 118C519.732 117.1 521.032 115.4 522.132 112.9C523.332 110.4 524.332 107.55 525.132 104.35C526.032 101.15 526.682 97.85 527.082 94.45C527.482 90.95 527.682 87.75 527.682 84.85C527.682 80.35 527.182 76.05 526.182 71.95C525.282 67.85 523.982 64.75 522.282 62.65C523.882 61.05 525.182 58.95 526.182 56.35C527.282 53.65 528.132 50.8 528.732 47.8C529.332 44.7 529.732 41.55 529.932 38.35C530.132 35.15 530.232 32.15 530.232 29.35C530.232 27.05 530.182 25.05 530.082 23.35C529.982 21.65 529.882 20.35 529.782 19.45C527.482 18.65 525.082 17 522.582 14.5C520.182 12 518.382 9.3 517.182 6.4C523.582 7.09999 529.632 7.59999 535.332 7.9C541.132 8.09999 546.582 8.19999 551.682 8.19999C562.582 8.19999 571.382 7.84999 578.082 7.15C584.782 6.44999 590.082 6.09999 593.982 6.09999C594.782 6.09999 595.482 6.14999 596.082 6.24999C596.682 6.24999 597.232 6.29999 597.732 6.4C597.132 7.5 596.482 9.49999 595.782 12.4C595.182 15.3 594.582 18.5 593.982 22C593.382 25.4 592.832 28.75 592.332 32.05C591.932 35.25 591.632 37.65 591.432 39.25L590.382 39.7C586.882 37.7 584.332 35.45 582.732 32.95C581.232 30.45 580.082 27.45 579.282 23.95C577.882 22.85 576.132 22.15 574.032 21.85C571.932 21.55 569.282 21.4 566.082 21.4C563.482 21.4 560.982 21.45 558.582 21.55C556.182 21.65 554.282 21.7 552.882 21.7C552.082 25.6 551.482 30.35 551.082 35.95C550.682 41.55 550.382 47.5 550.182 53.8C551.582 54 552.982 54.15 554.382 54.25C555.882 54.25 557.032 54.25 557.832 54.25C559.932 54.25 561.982 53.45 563.982 51.85C566.082 50.15 568.082 48 569.982 45.4C570.482 46.6 570.982 48 571.482 49.6C571.982 51.1 572.532 52.65 573.132 54.25C573.832 55.75 574.582 57.2 575.382 58.6C576.182 60 577.132 61.05 578.232 61.75C577.332 62.65 576.432 63.8 575.532 65.2C574.732 66.6 573.932 68.1 573.132 69.7C572.432 71.3 571.732 72.9 571.032 74.5C570.432 76.1 569.882 77.55 569.382 78.85C568.782 77.75 568.082 76.55 567.282 75.25C566.482 73.95 565.632 72.75 564.732 71.65C563.832 70.55 562.832 69.65 561.732 68.95C560.732 68.15 559.632 67.75 558.432 67.75C557.532 67.75 556.232 67.8 554.532 67.9C552.832 68 551.282 68.2 549.882 68.5V71.2C549.882 77.5 549.932 83.5 550.032 89.2C550.232 94.8 550.532 99.7 550.932 103.9L576.282 106.45C577.682 100.25 580.132 94.75 583.632 89.95C587.232 85.15 591.082 80.5 595.182 76L596.082 76.3C595.782 78.6 595.582 80.9 595.482 83.2C595.382 85.4 595.332 87.55 595.332 89.65C595.332 94.85 595.582 99.55 596.082 103.75C596.582 107.95 597.182 111.1 597.882 113.2C596.182 113.4 594.482 113.7 592.782 114.1C591.182 114.4 589.432 114.95 587.532 115.75C585.632 116.55 583.582 117.65 581.382 119.05C579.282 120.45 576.932 122.25 574.332 124.45C565.932 121.95 557.632 120.05 549.432 118.75C541.232 117.55 533.832 116.95 527.232 116.95C524.032 116.95 521.082 117.45 518.382 118.45L518.232 118ZM707.089 8.65C704.689 10.75 702.039 12.75 699.139 14.65C696.339 16.55 693.389 18.2 690.289 19.6C687.189 21 683.989 22.15 680.689 23.05C677.389 23.85 674.089 24.25 670.789 24.25C669.689 24.25 668.639 24.25 667.639 24.25C666.639 24.25 665.639 24.2 664.639 24.1C664.339 27.1 664.189 30.15 664.189 33.25C664.189 41.75 664.239 50.3 664.339 58.9C664.439 67.5 664.489 76.65 664.489 86.35C664.489 91.55 665.389 96.6 667.189 101.5C669.089 106.3 671.789 109.8 675.289 112C671.089 114 667.539 116.1 664.639 118.3C661.839 120.6 659.339 123.85 657.139 128.05C655.439 123.95 652.789 120.65 649.189 118.15C645.589 115.75 641.539 113.7 637.039 112C639.039 109.1 640.539 105.35 641.539 100.75C642.539 96.05 643.039 91.5 643.039 87.1C643.039 82.8 643.039 79 643.039 75.7C643.039 72.3 643.039 69.15 643.039 66.25C643.139 63.35 643.189 60.55 643.189 57.85C643.289 55.15 643.339 52.25 643.339 49.15C643.439 46.05 643.489 42.65 643.489 38.95C643.489 35.25 643.489 30.9 643.489 25.9C643.489 25.1 643.489 24.35 643.489 23.65C643.489 22.95 643.389 22.2 643.189 21.4C636.589 20.2 630.289 19 624.289 17.8C618.389 16.5 612.989 15.85 608.089 15.85C605.889 15.85 603.539 16.1 601.039 16.6L600.889 16.15C606.289 14.55 610.689 12.6 614.089 10.3C617.589 7.99999 621.089 5.24999 624.589 2.04999C629.789 3.55 634.189 4.75 637.789 5.65C641.489 6.55 644.889 7.25 647.989 7.75C651.189 8.25 654.289 8.6 657.289 8.79999C660.389 8.89999 663.889 8.94999 667.789 8.94999C666.789 7.25 666.089 5.75 665.689 4.45C665.289 3.05 665.039 1.6 664.939 0.099998C668.239 2.19999 671.289 3.84999 674.089 5.05C676.989 6.14999 679.739 6.99999 682.339 7.59999C684.939 8.1 687.539 8.4 690.139 8.5C692.739 8.6 695.439 8.65 698.239 8.65C699.839 8.65 701.289 8.6 702.589 8.5C703.989 8.4 705.389 8.25 706.789 8.04999L707.089 8.65Z" fill="#E10914"/>
</svg>
