<svg width="30" height="35" viewBox="0 0 30 35" fill="none" xmlns="http://www.w3.org/2000/svg">
<path d="M15.2083 35C17.1848 35 18.802 33.3846 18.802 31.4103H11.6145C11.6145 33.3846 13.2317 35 15.2083 35ZM25.9895 24.2308V15.2564C25.9895 9.74615 23.0606 5.13333 17.9036 3.91282V2.69231C17.9036 1.20256 16.6997 0 15.2083 0C13.7168 0 12.5129 1.20256 12.5129 2.69231V3.91282C7.37388 5.13333 4.427 9.72821 4.427 15.2564V24.2308L0.833252 27.8205V29.6154H29.5833V27.8205L25.9895 24.2308ZM22.3958 26.0256H8.02075V15.2564C8.02075 10.8051 10.734 7.17949 15.2083 7.17949C19.6825 7.17949 22.3958 10.8051 22.3958 15.2564V26.0256Z" fill="white"/>
</svg>
