<svg width="600" height="117" viewBox="0 0 600 117" fill="none" xmlns="http://www.w3.org/2000/svg">
<path d="M7.66119 39V30.552H11.5012V9.96H8.18919L7.18119 16.392H0.605188V1.704H35.6932V16.392H29.1172L28.1092 9.96H24.7012V30.552H28.5412V39H7.66119ZM39.7169 31.944H42.6929V10.344H39.7169V3.96L53.9729 2.424V17.544C54.5809 16.424 55.6369 15.464 57.1409 14.664C58.6769 13.832 60.3729 13.416 62.2289 13.416C64.9489 13.416 66.9969 14.216 68.3729 15.816C69.7809 17.416 70.4849 19.656 70.4849 22.536V31.944H73.4609V39H59.2049V23.688C59.2049 22.76 58.9329 21.992 58.3889 21.384C57.8449 20.776 57.2209 20.472 56.5169 20.472C55.7169 20.472 55.0929 20.744 54.6449 21.288C54.1969 21.832 53.9729 22.568 53.9729 23.496V31.944H56.2289V39H39.7169V31.944ZM89.8199 39.432C87.0039 39.432 84.5239 38.92 82.3799 37.896C80.2359 36.84 78.5719 35.32 77.3879 33.336C76.2039 31.32 75.6119 28.936 75.6119 26.184C75.6119 23.464 76.2039 21.144 77.3879 19.224C78.5719 17.304 80.2359 15.864 82.3799 14.904C84.5239 13.912 87.0039 13.416 89.8199 13.416C94.1399 13.416 97.5959 14.536 100.188 16.776C102.78 18.984 104.076 22.12 104.076 26.184C104.076 28.936 103.484 31.32 102.3 33.336C101.116 35.32 99.4519 36.84 97.3079 37.896C95.1639 38.92 92.6679 39.432 89.8199 39.432ZM89.8199 32.568C90.8439 32.568 91.5959 32.072 92.0759 31.08C92.5879 30.056 92.8439 28.424 92.8439 26.184C92.8439 24.104 92.6039 22.6 92.1239 21.672C91.6439 20.744 90.8759 20.28 89.8199 20.28C88.7959 20.28 88.0439 20.744 87.5639 21.672C87.0839 22.6 86.8439 24.104 86.8439 26.184C86.8439 28.424 87.0839 30.056 87.5639 31.08C88.0759 32.072 88.8279 32.568 89.8199 32.568ZM158.316 32.232V39H143.82V23.016C143.82 22.344 143.596 21.752 143.148 21.24C142.732 20.728 142.22 20.472 141.612 20.472C140.46 20.472 139.724 21.048 139.404 22.2C139.116 23.32 138.972 24.952 138.972 27.096V39H127.74V23.016C127.74 22.344 127.516 21.752 127.068 21.24C126.652 20.728 126.14 20.472 125.532 20.472C124.38 20.472 123.644 21.048 123.324 22.2C123.036 23.32 122.892 24.952 122.892 27.096V32.232H122.94V39H108.3V32.232H111.708V21.144H108.3V14.808L122.892 13.416V16.92C123.98 15.64 125.212 14.744 126.588 14.232C127.964 13.688 129.516 13.416 131.244 13.416C134.796 13.416 137.116 14.92 138.204 17.928C139.356 16.296 140.684 15.144 142.188 14.472C143.692 13.768 145.404 13.416 147.324 13.416C152.476 13.416 155.052 16.632 155.052 23.064V32.232H158.316ZM169.378 39.432C167.81 39.432 166.37 39.128 165.058 38.52C163.746 37.88 162.69 36.984 161.89 35.832C161.122 34.68 160.738 33.336 160.738 31.8C160.738 30.136 161.186 28.744 162.082 27.624C163.01 26.472 164.226 25.624 165.73 25.08C167.234 24.504 168.85 24.216 170.578 24.216C172.626 24.216 174.594 24.52 176.482 25.128V24.072C176.482 22.824 175.954 21.88 174.898 21.24C173.842 20.568 172.418 20.232 170.626 20.232C169.474 20.232 168.146 20.44 166.642 20.856C165.138 21.272 163.89 21.784 162.898 22.392L162.226 22.104V15.288C164.114 14.616 166.034 14.136 167.986 13.848C169.97 13.56 171.81 13.416 173.506 13.416C183.01 13.416 187.762 16.088 187.762 21.432V31.944H189.97V39H177.97L176.914 35.16C176.242 36.472 175.186 37.512 173.746 38.28C172.338 39.048 170.882 39.432 169.378 39.432ZM173.794 33.432C174.306 33.432 174.834 33.352 175.378 33.192C175.922 33 176.29 32.808 176.482 32.616V28.68C176.258 28.648 175.874 28.568 175.33 28.44C174.818 28.28 174.37 28.2 173.986 28.2C173.154 28.2 172.482 28.456 171.97 28.968C171.49 29.48 171.25 30.168 171.25 31.032C171.25 31.672 171.474 32.232 171.922 32.712C172.402 33.192 173.026 33.432 173.794 33.432ZM206.753 39.432C203.553 39.432 200.721 38.584 198.257 36.888L197.489 39H193.121V29.736H198.353C198.545 30.92 199.089 31.992 199.985 32.952C200.913 33.88 201.969 34.344 203.153 34.344C203.601 34.344 203.985 34.216 204.305 33.96C204.657 33.704 204.833 33.288 204.833 32.712C204.833 32.136 204.497 31.624 203.825 31.176C203.185 30.696 202.193 30.136 200.849 29.496C199.249 28.696 197.937 27.976 196.913 27.336C195.889 26.664 194.993 25.8 194.225 24.744C193.489 23.656 193.121 22.36 193.121 20.856C193.121 19.288 193.617 17.944 194.609 16.824C195.633 15.704 196.977 14.856 198.641 14.28C200.305 13.704 202.113 13.416 204.065 13.416C206.625 13.416 208.993 14.088 211.169 15.432L211.745 13.896H215.633V21.384H211.121C210.737 20.36 210.177 19.56 209.441 18.984C208.705 18.408 207.841 18.12 206.849 18.12C206.305 18.12 205.873 18.2 205.553 18.36C205.265 18.52 205.121 18.808 205.121 19.224C205.153 19.736 205.457 20.168 206.033 20.52C206.609 20.872 207.569 21.336 208.913 21.912C210.577 22.616 211.953 23.288 213.041 23.928C214.129 24.568 215.073 25.48 215.873 26.664C216.705 27.816 217.121 29.256 217.121 30.984C217.121 32.808 216.641 34.36 215.681 35.64C214.721 36.888 213.457 37.832 211.889 38.472C210.321 39.112 208.609 39.432 206.753 39.432ZM245.064 39.432C242.152 39.432 239.624 38.904 237.48 37.848C235.336 36.76 233.688 35.224 232.536 33.24C231.384 31.256 230.808 28.936 230.808 26.28C230.808 23.656 231.368 21.384 232.488 19.464C233.608 17.512 235.176 16.024 237.192 15C239.24 13.944 241.624 13.416 244.344 13.416C246.872 13.416 249.096 13.912 251.016 14.904C252.936 15.896 254.424 17.304 255.48 19.128C256.536 20.952 257.064 23.08 257.064 25.512C257.064 26.344 256.936 27.144 256.68 27.912H242.088C242.088 29.384 242.632 30.568 243.72 31.464C244.84 32.328 246.184 32.76 247.752 32.76C248.936 32.76 250.232 32.552 251.64 32.136C253.08 31.72 254.52 31.08 255.96 30.216L256.344 30.36V36.648C254.744 37.576 253.096 38.28 251.4 38.76C249.704 39.208 247.592 39.432 245.064 39.432ZM248.088 23.784V23.304C248.088 22.184 247.832 21.224 247.32 20.424C246.808 19.624 246.056 19.224 245.064 19.224C244.232 19.224 243.528 19.64 242.952 20.472C242.376 21.272 242.088 22.152 242.088 23.112V23.784H248.088ZM284.237 39.432C281.037 39.432 278.205 38.584 275.741 36.888L274.973 39H270.605V29.736H275.837C276.029 30.92 276.573 31.992 277.469 32.952C278.397 33.88 279.453 34.344 280.637 34.344C281.085 34.344 281.469 34.216 281.789 33.96C282.141 33.704 282.317 33.288 282.317 32.712C282.317 32.136 281.981 31.624 281.309 31.176C280.669 30.696 279.677 30.136 278.333 29.496C276.733 28.696 275.421 27.976 274.397 27.336C273.373 26.664 272.477 25.8 271.709 24.744C270.973 23.656 270.605 22.36 270.605 20.856C270.605 19.288 271.101 17.944 272.093 16.824C273.117 15.704 274.461 14.856 276.125 14.28C277.789 13.704 279.597 13.416 281.549 13.416C284.109 13.416 286.477 14.088 288.653 15.432L289.229 13.896H293.117V21.384H288.605C288.221 20.36 287.661 19.56 286.925 18.984C286.189 18.408 285.325 18.12 284.333 18.12C283.789 18.12 283.357 18.2 283.037 18.36C282.749 18.52 282.605 18.808 282.605 19.224C282.637 19.736 282.941 20.168 283.517 20.52C284.093 20.872 285.053 21.336 286.397 21.912C288.061 22.616 289.437 23.288 290.525 23.928C291.613 24.568 292.557 25.48 293.357 26.664C294.189 27.816 294.605 29.256 294.605 30.984C294.605 32.808 294.125 34.36 293.165 35.64C292.205 36.888 290.941 37.832 289.373 38.472C287.805 39.112 286.093 39.432 284.237 39.432ZM312.658 39.432C309.746 39.432 307.218 38.904 305.074 37.848C302.93 36.76 301.282 35.224 300.13 33.24C298.978 31.256 298.402 28.936 298.402 26.28C298.402 23.656 298.962 21.384 300.082 19.464C301.202 17.512 302.77 16.024 304.786 15C306.834 13.944 309.218 13.416 311.938 13.416C314.466 13.416 316.69 13.912 318.61 14.904C320.53 15.896 322.018 17.304 323.074 19.128C324.13 20.952 324.658 23.08 324.658 25.512C324.658 26.344 324.53 27.144 324.274 27.912H309.682C309.682 29.384 310.226 30.568 311.314 31.464C312.434 32.328 313.778 32.76 315.346 32.76C316.53 32.76 317.826 32.552 319.234 32.136C320.674 31.72 322.114 31.08 323.554 30.216L323.938 30.36V36.648C322.338 37.576 320.69 38.28 318.994 38.76C317.298 39.208 315.186 39.432 312.658 39.432ZM315.682 23.784V23.304C315.682 22.184 315.426 21.224 314.914 20.424C314.402 19.624 313.65 19.224 312.658 19.224C311.826 19.224 311.122 19.64 310.546 20.472C309.97 21.272 309.682 22.152 309.682 23.112V23.784H315.682ZM338.868 39.432C333.844 39.432 331.332 36.28 331.332 29.976V21.144H328.308V14.808L342.564 13.416V29.976C342.564 30.584 342.788 31.144 343.236 31.656C343.684 32.168 344.212 32.424 344.82 32.424C345.524 32.424 346.068 32.184 346.452 31.704C346.868 31.224 347.076 30.632 347.076 29.928V21.144H344.82V14.808L358.308 13.416V31.944H361.332V39H347.076V35.352C346.244 36.632 345.14 37.64 343.764 38.376C342.388 39.08 340.756 39.432 338.868 39.432ZM377.987 39.432C374.787 39.432 371.955 38.584 369.491 36.888L368.723 39H364.355V29.736H369.587C369.779 30.92 370.323 31.992 371.219 32.952C372.147 33.88 373.203 34.344 374.387 34.344C374.835 34.344 375.219 34.216 375.539 33.96C375.891 33.704 376.067 33.288 376.067 32.712C376.067 32.136 375.731 31.624 375.059 31.176C374.419 30.696 373.427 30.136 372.083 29.496C370.483 28.696 369.171 27.976 368.147 27.336C367.123 26.664 366.227 25.8 365.459 24.744C364.723 23.656 364.355 22.36 364.355 20.856C364.355 19.288 364.851 17.944 365.843 16.824C366.867 15.704 368.211 14.856 369.875 14.28C371.539 13.704 373.347 13.416 375.299 13.416C377.859 13.416 380.227 14.088 382.403 15.432L382.979 13.896H386.867V21.384H382.355C381.971 20.36 381.411 19.56 380.675 18.984C379.939 18.408 379.075 18.12 378.083 18.12C377.539 18.12 377.107 18.2 376.787 18.36C376.499 18.52 376.355 18.808 376.355 19.224C376.387 19.736 376.691 20.168 377.267 20.52C377.843 20.872 378.803 21.336 380.147 21.912C381.811 22.616 383.187 23.288 384.275 23.928C385.363 24.568 386.307 25.48 387.107 26.664C387.939 27.816 388.355 29.256 388.355 30.984C388.355 32.808 387.875 34.36 386.915 35.64C385.955 36.888 384.691 37.832 383.123 38.472C381.555 39.112 379.843 39.432 377.987 39.432ZM411.019 39.432C409.451 39.432 408.011 39.128 406.699 38.52C405.387 37.88 404.331 36.984 403.531 35.832C402.763 34.68 402.379 33.336 402.379 31.8C402.379 30.136 402.827 28.744 403.723 27.624C404.651 26.472 405.867 25.624 407.371 25.08C408.875 24.504 410.491 24.216 412.219 24.216C414.267 24.216 416.235 24.52 418.123 25.128V24.072C418.123 22.824 417.595 21.88 416.539 21.24C415.483 20.568 414.059 20.232 412.267 20.232C411.115 20.232 409.787 20.44 408.283 20.856C406.779 21.272 405.531 21.784 404.539 22.392L403.867 22.104V15.288C405.755 14.616 407.675 14.136 409.627 13.848C411.611 13.56 413.451 13.416 415.147 13.416C424.651 13.416 429.403 16.088 429.403 21.432V31.944H431.611V39H419.611L418.555 35.16C417.883 36.472 416.827 37.512 415.387 38.28C413.979 39.048 412.523 39.432 411.019 39.432ZM415.435 33.432C415.947 33.432 416.475 33.352 417.019 33.192C417.563 33 417.931 32.808 418.123 32.616V28.68C417.899 28.648 417.515 28.568 416.971 28.44C416.459 28.28 416.011 28.2 415.627 28.2C414.795 28.2 414.123 28.456 413.611 28.968C413.131 29.48 412.891 30.168 412.891 31.032C412.891 31.672 413.115 32.232 413.563 32.712C414.043 33.192 414.667 33.432 415.435 33.432ZM485.737 32.232V39H471.241V23.016C471.241 22.344 471.017 21.752 470.569 21.24C470.153 20.728 469.641 20.472 469.033 20.472C467.881 20.472 467.145 21.048 466.825 22.2C466.537 23.32 466.393 24.952 466.393 27.096V39H455.161V23.016C455.161 22.344 454.937 21.752 454.489 21.24C454.073 20.728 453.561 20.472 452.953 20.472C451.801 20.472 451.065 21.048 450.745 22.2C450.457 23.32 450.313 24.952 450.313 27.096V32.232H450.361V39H435.721V32.232H439.129V21.144H435.721V14.808L450.313 13.416V16.92C451.401 15.64 452.633 14.744 454.009 14.232C455.385 13.688 456.937 13.416 458.665 13.416C462.217 13.416 464.537 14.92 465.625 17.928C466.777 16.296 468.105 15.144 469.609 14.472C471.113 13.768 472.825 13.416 474.745 13.416C479.897 13.416 482.473 16.632 482.473 23.064V32.232H485.737ZM496.992 11.448C495.04 11.448 493.424 10.984 492.144 10.056C490.896 9.128 490.272 7.8 490.272 6.072C490.272 4.344 490.896 3.032 492.144 2.136C493.424 1.24 495.056 0.791997 497.04 0.791997C499.024 0.791997 500.64 1.24 501.888 2.136C503.136 3 503.76 4.312 503.76 6.072C503.76 7.8 503.12 9.128 501.84 10.056C500.56 10.984 498.944 11.448 496.992 11.448ZM488.352 39V31.944H491.376V21.144H488.352V15.384L502.608 13.896V31.944H505.632V39H488.352ZM522.508 48.12C519.18 48.12 515.66 47.64 511.948 46.68V39.912C514.028 40.552 515.74 41.032 517.084 41.352C518.46 41.704 519.804 41.88 521.116 41.88C524.892 41.88 526.78 40.008 526.78 36.264C525.916 37.032 524.86 37.688 523.612 38.232C522.364 38.744 520.956 39 519.388 39C517.116 39 515.196 38.44 513.628 37.32C512.06 36.168 510.876 34.632 510.076 32.712C509.308 30.792 508.924 28.664 508.924 26.328C508.924 23.928 509.324 21.752 510.124 19.8C510.924 17.848 512.108 16.296 513.676 15.144C515.244 13.992 517.148 13.416 519.388 13.416C522.46 13.416 524.924 14.744 526.78 17.4L528.46 13.896H540.412V21.144H538.156V35.832C538.156 39.896 536.732 42.952 533.884 45C531.036 47.08 527.244 48.12 522.508 48.12ZM523.804 32.568C524.54 32.568 525.212 32.344 525.82 31.896C526.428 31.448 526.796 31 526.924 30.552V22.008C526.636 21.464 526.204 21.048 525.628 20.76C525.052 20.44 524.38 20.28 523.612 20.28C522.332 20.28 521.308 20.84 520.54 21.96C519.772 23.048 519.388 24.552 519.388 26.472C519.388 28.296 519.772 29.768 520.54 30.888C521.308 32.008 522.396 32.568 523.804 32.568ZM558.054 39.432C555.238 39.432 552.758 38.92 550.614 37.896C548.47 36.84 546.806 35.32 545.622 33.336C544.438 31.32 543.846 28.936 543.846 26.184C543.846 23.464 544.438 21.144 545.622 19.224C546.806 17.304 548.47 15.864 550.614 14.904C552.758 13.912 555.238 13.416 558.054 13.416C562.374 13.416 565.83 14.536 568.422 16.776C571.014 18.984 572.31 22.12 572.31 26.184C572.31 28.936 571.718 31.32 570.534 33.336C569.35 35.32 567.686 36.84 565.542 37.896C563.398 38.92 560.902 39.432 558.054 39.432ZM558.054 32.568C559.078 32.568 559.83 32.072 560.31 31.08C560.822 30.056 561.078 28.424 561.078 26.184C561.078 24.104 560.838 22.6 560.358 21.672C559.878 20.744 559.11 20.28 558.054 20.28C557.03 20.28 556.278 20.744 555.798 21.672C555.318 22.6 555.078 24.104 555.078 26.184C555.078 28.424 555.318 30.056 555.798 31.08C556.31 32.072 557.062 32.568 558.054 32.568ZM589.206 39.432C586.006 39.432 583.174 38.584 580.71 36.888L579.942 39H575.574V29.736H580.806C580.998 30.92 581.542 31.992 582.438 32.952C583.366 33.88 584.422 34.344 585.606 34.344C586.054 34.344 586.438 34.216 586.758 33.96C587.11 33.704 587.286 33.288 587.286 32.712C587.286 32.136 586.95 31.624 586.278 31.176C585.638 30.696 584.646 30.136 583.302 29.496C581.702 28.696 580.39 27.976 579.366 27.336C578.342 26.664 577.446 25.8 576.678 24.744C575.942 23.656 575.574 22.36 575.574 20.856C575.574 19.288 576.07 17.944 577.062 16.824C578.086 15.704 579.43 14.856 581.094 14.28C582.758 13.704 584.566 13.416 586.518 13.416C589.078 13.416 591.446 14.088 593.622 15.432L594.198 13.896H598.086V21.384H593.574C593.19 20.36 592.63 19.56 591.894 18.984C591.158 18.408 590.294 18.12 589.302 18.12C588.758 18.12 588.326 18.2 588.006 18.36C587.718 18.52 587.574 18.808 587.574 19.224C587.606 19.736 587.91 20.168 588.486 20.52C589.062 20.872 590.022 21.336 591.366 21.912C593.03 22.616 594.406 23.288 595.494 23.928C596.582 24.568 597.526 25.48 598.326 26.664C599.158 27.816 599.574 29.256 599.574 30.984C599.574 32.808 599.094 34.36 598.134 35.64C597.174 36.888 595.91 37.832 594.342 38.472C592.774 39.112 591.062 39.432 589.206 39.432ZM151.907 116V107.6H155.651V86.96H151.907V78.704H171.395V86.96H167.651V107.6H173.651L175.907 99.392H181.859V116H151.907ZM193.195 88.448C191.243 88.448 189.627 87.984 188.347 87.056C187.099 86.128 186.475 84.8 186.475 83.072C186.475 81.344 187.099 80.032 188.347 79.136C189.627 78.24 191.259 77.792 193.243 77.792C195.227 77.792 196.843 78.24 198.091 79.136C199.339 80 199.963 81.312 199.963 83.072C199.963 84.8 199.323 86.128 198.043 87.056C196.763 87.984 195.147 88.448 193.195 88.448ZM184.555 116V108.944H187.579V98.144H184.555V92.384L198.811 90.896V108.944H201.835V116H184.555ZM214.632 116L206.808 98.144H203.352V90.896H221.352V98.144H218.76L222.84 109.952L227.352 98.144H224.376V90.896H237.096V98.144H233.928L226.584 116H214.632ZM253.83 116.432C250.918 116.432 248.39 115.904 246.246 114.848C244.102 113.76 242.454 112.224 241.302 110.24C240.15 108.256 239.574 105.936 239.574 103.28C239.574 100.656 240.134 98.384 241.254 96.464C242.374 94.512 243.942 93.024 245.958 92C248.006 90.944 250.39 90.416 253.11 90.416C255.638 90.416 257.862 90.912 259.782 91.904C261.702 92.896 263.19 94.304 264.246 96.128C265.302 97.952 265.83 100.08 265.83 102.512C265.83 103.344 265.702 104.144 265.446 104.912H250.854C250.854 106.384 251.398 107.568 252.486 108.464C253.606 109.328 254.95 109.76 256.518 109.76C257.702 109.76 258.998 109.552 260.406 109.136C261.846 108.72 263.286 108.08 264.726 107.216L265.11 107.36V113.648C263.51 114.576 261.862 115.28 260.166 115.76C258.47 116.208 256.358 116.432 253.83 116.432ZM256.854 100.784V100.304C256.854 99.184 256.598 98.224 256.086 97.424C255.574 96.624 254.822 96.224 253.83 96.224C252.998 96.224 252.294 96.64 251.718 97.472C251.142 98.272 250.854 99.152 250.854 100.112V100.784H256.854ZM288.347 116.432C286.779 116.432 285.339 116.128 284.027 115.52C282.715 114.88 281.659 113.984 280.859 112.832C280.091 111.68 279.707 110.336 279.707 108.8C279.707 107.136 280.155 105.744 281.051 104.624C281.979 103.472 283.195 102.624 284.699 102.08C286.203 101.504 287.819 101.216 289.547 101.216C291.595 101.216 293.563 101.52 295.451 102.128V101.072C295.451 99.824 294.923 98.88 293.867 98.24C292.811 97.568 291.387 97.232 289.595 97.232C288.443 97.232 287.115 97.44 285.611 97.856C284.107 98.272 282.859 98.784 281.867 99.392L281.195 99.104V92.288C283.083 91.616 285.003 91.136 286.955 90.848C288.939 90.56 290.779 90.416 292.475 90.416C301.979 90.416 306.731 93.088 306.731 98.432V108.944H308.939V116H296.939L295.883 112.16C295.211 113.472 294.155 114.512 292.715 115.28C291.307 116.048 289.851 116.432 288.347 116.432ZM292.763 110.432C293.275 110.432 293.803 110.352 294.347 110.192C294.891 110 295.259 109.808 295.451 109.616V105.68C295.227 105.648 294.843 105.568 294.299 105.44C293.787 105.28 293.339 105.2 292.955 105.2C292.123 105.2 291.451 105.456 290.939 105.968C290.459 106.48 290.219 107.168 290.219 108.032C290.219 108.672 290.443 109.232 290.891 109.712C291.371 110.192 291.995 110.432 292.763 110.432ZM326.346 116.432C323.498 116.432 321.002 115.888 318.858 114.8C316.714 113.712 315.05 112.176 313.866 110.192C312.682 108.208 312.09 105.872 312.09 103.184C312.09 100.752 312.586 98.576 313.578 96.656C314.57 94.704 315.978 93.184 317.802 92.096C319.658 90.976 321.802 90.416 324.234 90.416C325.61 90.416 327.066 90.672 328.602 91.184C330.17 91.664 331.162 92.4 331.578 93.392L332.538 90.896H337.626V101.264H330.858C330.73 100.016 330.362 99.04 329.754 98.336C329.146 97.632 328.394 97.28 327.498 97.28C326.154 97.28 325.13 97.712 324.426 98.576C323.722 99.408 323.37 100.96 323.37 103.232C323.37 105.568 323.978 107.184 325.194 108.08C326.41 108.976 327.802 109.424 329.37 109.424C330.49 109.424 331.706 109.232 333.018 108.848C334.33 108.432 335.498 107.792 336.522 106.928L336.858 107.168V113.696C336.858 113.76 336.378 114.032 335.418 114.512C334.458 114.992 333.194 115.44 331.626 115.856C330.058 116.24 328.298 116.432 326.346 116.432ZM353.434 116.432C350.394 116.432 348.122 115.664 346.618 114.128C345.146 112.56 344.41 110.192 344.41 107.024V97.76H340.666V90.896H344.41V85.52L355.642 83.024V90.896H360.154V97.76H355.642V106.208C355.642 106.912 355.898 107.504 356.41 107.984C356.954 108.432 357.626 108.656 358.426 108.656C359.002 108.656 359.578 108.608 360.154 108.512V115.04C358.106 115.968 355.866 116.432 353.434 116.432ZM372.914 88.448C370.962 88.448 369.346 87.984 368.066 87.056C366.818 86.128 366.194 84.8 366.194 83.072C366.194 81.344 366.818 80.032 368.066 79.136C369.346 78.24 370.978 77.792 372.962 77.792C374.946 77.792 376.562 78.24 377.81 79.136C379.058 80 379.682 81.312 379.682 83.072C379.682 84.8 379.042 86.128 377.762 87.056C376.482 87.984 374.866 88.448 372.914 88.448ZM364.274 116V108.944H367.298V98.144H364.274V92.384L378.53 90.896V108.944H381.554V116H364.274ZM399.054 116.432C396.238 116.432 393.758 115.92 391.614 114.896C389.47 113.84 387.806 112.32 386.622 110.336C385.438 108.32 384.846 105.936 384.846 103.184C384.846 100.464 385.438 98.144 386.622 96.224C387.806 94.304 389.47 92.864 391.614 91.904C393.758 90.912 396.238 90.416 399.054 90.416C403.374 90.416 406.83 91.536 409.422 93.776C412.014 95.984 413.31 99.12 413.31 103.184C413.31 105.936 412.718 108.32 411.534 110.336C410.35 112.32 408.686 113.84 406.542 114.896C404.398 115.92 401.902 116.432 399.054 116.432ZM399.054 109.568C400.078 109.568 400.83 109.072 401.31 108.08C401.822 107.056 402.078 105.424 402.078 103.184C402.078 101.104 401.838 99.6 401.358 98.672C400.878 97.744 400.11 97.28 399.054 97.28C398.03 97.28 397.278 97.744 396.798 98.672C396.318 99.6 396.078 101.104 396.078 103.184C396.078 105.424 396.318 107.056 396.798 108.08C397.31 109.072 398.062 109.568 399.054 109.568ZM451.47 109.232V116H436.974V100.016C436.974 99.344 436.75 98.752 436.302 98.24C435.886 97.728 435.374 97.472 434.766 97.472C433.614 97.472 432.878 98.048 432.558 99.2C432.27 100.32 432.126 101.952 432.126 104.096V109.232H432.174V116H417.534V109.232H420.942V98.144H417.534V91.808L432.126 90.416V93.92C433.214 92.64 434.446 91.744 435.822 91.232C437.198 90.688 438.75 90.416 440.478 90.416C445.63 90.416 448.206 93.632 448.206 100.064V109.232H451.47Z" fill="white"/>
</svg>
